<svg xmlns="http://www.w3.org/2000/svg" viewBox="0 0 389.981 389.981" width="512" height="512"><g fill="#929ca5"><path d="M194.99 30.276c-90.824 0-164.714 73.891-164.714 164.715s73.891 164.714 164.714 164.714 164.714-73.891 164.714-164.714c.001-90.824-73.89-164.715-164.714-164.715zm0 314.429c-82.553 0-149.714-67.162-149.714-149.714 0-82.553 67.162-149.715 149.714-149.715 82.553 0 149.714 67.162 149.714 149.715.001 82.552-67.161 149.714-149.714 149.714z"/><path d="M320.337 213.328h-40.329V176.65h40.329c4.143 0 7.5-3.358 7.5-7.5s-3.357-7.5-7.5-7.5h-40.329v-36.67h16.776c4.143 0 7.5-3.358 7.5-7.5s-3.357-7.5-7.5-7.5h-16.776V93.202c0-4.142-3.357-7.5-7.5-7.5s-7.5 3.358-7.5 7.5v16.777H228.33V69.65c0-4.142-3.357-7.5-7.5-7.5s-7.5 3.358-7.5 7.5v40.329h-36.678V69.65a7.5 7.5 0 0 0-15 0v40.329h-36.67V93.194a7.5 7.5 0 0 0-15 0v16.785H93.196a7.5 7.5 0 0 0 0 15h16.785v36.67H69.652a7.5 7.5 0 0 0 0 15h40.329v36.678H69.652a7.5 7.5 0 0 0 0 15h40.329v36.678H93.196a7.5 7.5 0 0 0 0 15h16.785v16.785a7.5 7.5 0 0 0 15 0v-16.785h36.67v40.329a7.5 7.5 0 0 0 15 0v-40.329h36.678v40.329c0 4.142 3.357 7.5 7.5 7.5s7.5-3.358 7.5-7.5v-40.329h36.679v16.777c0 4.142 3.357 7.5 7.5 7.5s7.5-3.358 7.5-7.5v-16.777h16.776c4.143 0 7.5-3.358 7.5-7.5s-3.357-7.5-7.5-7.5h-16.776v-36.678h40.329a7.5 7.5 0 1 0 0-14.999zm-55.329 0H228.33V176.65h36.679v36.678h-.001zm-51.678 0h-36.678V176.65h36.678v36.678zm51.678-88.349v36.67H228.33v-36.67h36.678zm-51.678 0v36.67h-36.678v-36.67h36.678zm-88.349 0h36.67v36.67h-36.67v-36.67zm0 51.67h36.67v36.678h-36.67v-36.678zm0 88.357v-36.678h36.67v36.678h-36.67zm51.67 0v-36.678h36.678v36.678h-36.678zm88.357 0H228.33v-36.678h36.679v36.678h-.001z"/><path d="M352.382 309.953c23.625-32.257 37.599-72.006 37.599-114.962 0-42.958-13.975-82.708-37.602-114.966l14.431-14.431a7.5 7.5 0 0 0 0-10.606l-31.819-31.82a7.5 7.5 0 0 0-10.607 0l-14.431 14.431C277.695 13.973 237.947 0 194.99 0S112.285 13.974 80.028 37.599L65.596 23.167a7.5 7.5 0 0 0-10.606 0l-31.82 31.82a7.5 7.5 0 0 0 0 10.606l14.431 14.431C13.974 112.283 0 152.033 0 194.991c0 42.957 13.973 82.705 37.599 114.962L23.17 324.381a7.497 7.497 0 0 0 0 10.606l31.82 31.82a7.474 7.474 0 0 0 5.303 2.197 7.474 7.474 0 0 0 5.303-2.197l14.428-14.428c32.258 23.627 72.008 37.602 114.966 37.602s82.708-13.975 114.966-37.602l14.428 14.427c1.464 1.465 3.384 2.197 5.303 2.197s3.839-.732 5.304-2.197l31.819-31.82a7.5 7.5 0 0 0 0-10.606l-14.428-14.427zM329.687 39.077L350.9 60.291l-7.902 7.902a196.701 196.701 0 0 0-21.213-21.213l7.902-7.903zM39.08 60.291l21.213-21.213 7.902 7.902a196.801 196.801 0 0 0-21.214 21.213l-7.901-7.902zm21.213 290.606L39.08 329.684l7.899-7.899a196.801 196.801 0 0 0 21.213 21.214l-7.899 7.898zM15 194.991C15 95.744 95.743 15 194.99 15c99.248 0 179.991 80.744 179.991 179.991s-80.743 179.99-179.991 179.99C95.743 374.981 15 294.238 15 194.991zm314.687 155.906l-7.899-7.898a196.62 196.62 0 0 0 21.213-21.214l7.899 7.898-21.213 21.214z"/></g></svg>